<!-- Generated by IcoMoon.io -->
<svg version="1.1" xmlns="http://www.w3.org/2000/svg" width="1024" height="1024" viewBox="0 0 32 32">
<title>antenna</title>
<g id="icomoon-ignore">
</g>
<path fill="#2e2f42" d="M984.74 707.124l-270.182-272.162 29.986-147.696c7.738 3.022 15.966 4.6 24.27 4.658h0.206c38.154 0.452 69.446-30.112 69.9-68.264s-30.112-69.446-68.264-69.9c-38.154-0.45-69.446 30.112-69.9 68.264-0.096 8.164 1.254 16.278 3.992 23.972l-158.72 19.37-258.902-260.25c-3.176-3.242-7.512-5.084-12.050-5.12-4.48 0.022-8.77 1.806-11.946 4.966l-48.402 48.128c-6.662 6.664-6.662 17.468 0 24.132l26.044 26.418c-100.896 185.532-68.126 415.29 80.624 565.212 1.366 1.306 2.948 2.362 4.676 3.124-1.074 5.776-1.634 11.634-1.672 17.51v197.974h-204.8c-47.104 0.054-85.278 38.23-85.332 85.332v34.134c0 9.426 7.642 17.068 17.068 17.068h785.066c9.426 0 17.068-7.642 17.068-17.068v-34.134c-0.056-47.104-38.23-85.278-85.332-85.332h-204.8v-87.74c32.082 6.73 64.77 10.16 97.552 10.24 78.66-0.086 156.068-19.694 225.28-57.070l26.182 26.334c3.176 3.24 7.512 5.082 12.050 5.12 4.48-0.024 8.77-1.808 11.946-4.966l48.402-48.128c6.662-6.666 6.662-17.47 0-24.134zM744.954 199.458c13.366-13.294 34.98-13.234 48.272 0.132s13.236 34.978-0.13 48.27c-6.398 6.362-15.054 9.934-24.078 9.934h-0.102c-18.85-0.098-34.054-15.458-33.956-34.31 0.048-9.024 3.666-17.658 10.064-24.024h-0.068zM704.778 311.604l-19.15 94.26-37.616-37.836 56.764-56.422zM685.392 282.744l-61.44 61.082-47.53-47.786 108.972-13.294zM768.13 921.6c28.278 0 51.2 22.924 51.2 51.2v17.068h-750.934v-17.068c0-28.278 22.924-51.2 51.2-51.2h648.534zM529.198 853.332v34.134h-170.668v-34.134h170.668zM358.53 819.2v-129.706c0-41.404 38.282-75.092 85.334-75.092s85.334 33.69 85.334 75.092v129.706h-170.668zM563.332 764.928v-75.436c0-60.226-53.59-109.226-119.466-109.226-42.596-0.654-82.424 21.028-104.996 57.154-129.846-136.762-159.086-340.646-72.916-508.388l595.26 598.672c-91.918 46.758-197.284 59.924-297.882 37.222zM924.582 743.048l-673.826-677.784 24.15-24.064 253.918 255.352c0.12 0 0.188 0.222 0.308 0.308l419.668 422.126-24.218 24.064z"></path>
<path fill="#4d5ae5" d="M444.018 648.534h-0.154c-28.276-0.044-51.234 22.846-51.276 51.124s22.846 51.234 51.122 51.278h0.154c28.276 0.044 51.234-22.846 51.276-51.124s-22.846-51.234-51.122-51.278zM455.964 711.834c-3.214 3.196-7.568 4.982-12.1 4.966-9.426-0.050-17.026-7.73-16.978-17.154 0.024-4.512 1.834-8.828 5.030-12.014 3.178-3.158 7.466-4.942 11.948-4.966 9.426 0.050 17.026 7.73 16.978 17.154-0.024 4.512-1.834 8.828-5.030 12.014h0.154z"></path>
</svg>
